<svg width="15" height="18" viewBox="0 0 15 18" fill="none" xmlns="http://www.w3.org/2000/svg">
<path d="M1 17L6 16.5L7 14.5M14 17V12H8.5L11 5.5L5.5 6.5L7 8.5M11 2C11 2.26522 11.1054 2.51957 11.2929 2.70711C11.4804 2.89464 11.7348 3 12 3C12.2652 3 12.5196 2.89464 12.7071 2.70711C12.8946 2.51957 13 2.26522 13 2C13 1.73478 12.8946 1.48043 12.7071 1.29289C12.5196 1.10536 12.2652 1 12 1C11.7348 1 11.4804 1.10536 11.2929 1.29289C11.1054 1.48043 11 1.73478 11 2Z" stroke="#8A9181" stroke-width="2" stroke-linecap="round" stroke-linejoin="round"/>
</svg>
